<svg width="101" height="101" viewBox="0 0 101 101" fill="none" xmlns="http://www.w3.org/2000/svg">
<path d="M53.343 40.1292C53.53 40.4378 53.6797 40.709 53.6797 40.7371C53.6797 40.7558 53.3617 40.7745 52.9783 40.7745C52.5948 40.7745 52.2769 40.7465 52.2769 40.7184C52.2769 40.6436 52.9315 39.5588 52.9783 39.5588C52.9876 39.5588 53.156 39.8113 53.343 40.1292Z" fill="url(#paint0_linear_713_5693)"/>
<path fill-rule="evenodd" clip-rule="evenodd" d="M52.8848 41.027C52.9409 41.186 52.9502 41.186 53.0718 41.0177C53.2027 40.8493 53.2214 40.8493 53.4459 40.999C53.848 41.2608 54.0631 41.7003 54.0257 42.1773C54.007 42.4111 53.9602 42.6729 53.9228 42.7571C53.8761 42.86 53.8854 42.9254 53.9509 42.9254C54.007 42.9254 54.2875 43.0283 54.5868 43.1592C54.8437 43.2764 54.9032 43.6149 54.7016 43.8126L54.6335 43.8793L54.4905 44.0252C54.2908 44.2288 53.9837 44.2829 53.7264 44.1599C52.9596 43.7858 52.8099 43.9167 53.1747 44.6181C53.3196 44.9079 53.2608 45.2581 53.0293 45.4847L52.9783 45.5346C52.5668 45.9461 52.5387 45.9554 52.4078 45.7871C52.339 45.6888 52.3063 45.6421 52.2908 45.6472C52.2769 45.6518 52.2769 45.6985 52.2769 45.7871C52.2769 46.1331 51.7438 46.7971 50.4439 48.0877L49.5389 48.9861C49.3015 49.2218 48.9426 49.285 48.639 49.1444C48.2556 48.9667 48.106 48.9293 48.0124 49.0135C47.9002 49.107 47.9283 49.2005 48.1621 49.6027C48.3225 49.8904 48.2725 50.2497 48.0396 50.4827L47.9844 50.5378C47.5729 50.94 47.5168 50.968 47.4326 50.8184C47.3485 50.6688 47.3204 50.6968 47.2362 51.0241C47.0492 51.7349 46.4039 52.3802 45.6932 52.5672C44.6458 52.8478 43.5516 51.8003 43.5516 50.5004C43.5516 49.2473 44.5897 48.1438 45.6464 48.284C45.7927 48.3033 45.8982 48.1472 45.8257 48.0186L45.7961 47.9661C45.6744 47.7559 45.7074 47.4905 45.8768 47.3166L46.2917 46.8906C46.9744 46.1986 47.5355 45.8339 47.9376 45.8245C48.0498 45.8245 48.293 45.9274 48.4894 46.0583L48.5401 46.094C48.6072 46.1411 48.6908 46.0629 48.6484 45.9928C48.6017 45.9088 48.5363 45.7967 48.4709 45.6846C48.4055 45.5726 48.3397 45.4597 48.293 45.3756C48.1934 45.1985 48.2232 44.9767 48.3661 44.8322L48.957 44.2347C49.8735 43.3182 50.2382 43.1125 50.6777 43.2995C51.1547 43.4959 51.3511 44.0757 51.1173 44.6088C51.0705 44.7303 51.1266 44.749 51.4259 44.721C51.5968 44.7035 51.6926 44.5152 51.6062 44.3667L50.745 42.8865C50.653 42.7283 50.6633 42.5307 50.7712 42.383C50.977 42.0838 52.015 41.1486 52.3049 40.9896C52.5948 40.8306 52.8099 40.84 52.8848 41.027ZM52.1108 42.6434C52.1233 42.5774 52.1769 42.5192 52.277 42.4104C52.8007 41.8493 53.1747 42.4572 52.6697 43.037L52.6537 43.0546C52.5276 43.1933 52.3011 43.1596 52.2209 42.9902C52.1359 42.8052 52.0963 42.7192 52.1108 42.6434ZM49.7332 44.7676C49.4901 45.0201 49.4901 45.1791 49.7239 45.4409C49.7987 45.5438 50.3131 44.9266 50.3131 44.7302C50.3131 44.4309 50.0325 44.4496 49.7332 44.7676ZM50.2943 46.4227C50.1914 46.1983 50.2101 46.1515 50.4907 45.899C51.005 45.4408 51.2669 45.7681 50.8274 46.3386C50.5374 46.7313 50.4346 46.7407 50.2943 46.4227ZM49.0506 47.068C49.0506 47.2831 49.0132 47.5543 48.9758 47.6759C48.9104 47.8629 48.9478 47.9004 49.3405 48.0687C49.5837 48.1809 49.8175 48.2464 49.8549 48.237C49.9016 48.2183 49.7333 47.8629 49.4902 47.4421L49.2459 47.016C49.1926 46.923 49.0506 46.9609 49.0506 47.068ZM47.0821 47.6765C47.089 47.6035 47.152 47.5358 47.283 47.3951C47.4232 47.2549 47.5916 47.1333 47.6477 47.1333C47.8067 47.1333 47.975 47.339 47.975 47.5167C47.975 47.6757 47.5448 48.2555 47.4326 48.2555C47.3952 48.2555 47.2923 48.1246 47.1988 47.9563C47.1177 47.8167 47.0757 47.7443 47.0821 47.6765ZM46.0109 48.8636C45.9548 48.9945 45.8706 49.2096 45.8239 49.3405C45.7491 49.5369 45.6836 49.5743 45.4966 49.5276C45.3376 49.4902 45.1973 49.5369 45.0103 49.6959C44.552 50.0887 44.7297 50.9958 45.3189 51.267C45.6275 51.4073 46.0296 51.1174 46.1418 50.6592C46.2167 50.3599 46.2634 50.3225 46.6375 50.2664C46.8526 50.2383 47.0396 50.1916 47.0396 50.1635C47.0396 50.098 46.1793 48.6298 46.1325 48.6298C46.1138 48.6298 46.0577 48.7327 46.0109 48.8636Z" fill="url(#paint1_linear_713_5693)"/>
<path fill-rule="evenodd" clip-rule="evenodd" d="M52.6602 23.3799C56.7844 23.7914 60.8898 25.1942 64.2939 27.3358C70.4848 31.2448 74.768 37.3236 76.3485 44.4216C76.8161 46.5538 76.9189 47.5545 76.9189 50.2665C76.9189 52.2023 76.8722 53.0534 76.7506 53.9137C76.1895 57.7012 74.9831 61.124 73.094 64.2382C72.8041 64.7245 72.5703 65.136 72.5703 65.164C72.5703 65.1921 73.5897 66.2488 74.8428 67.5113C76.6477 69.3443 77.1808 69.9335 77.4239 70.4104C77.8448 71.2147 77.9944 71.8132 77.9944 72.7577C77.9944 74.2073 77.5735 75.236 76.5448 76.274C75.8622 76.966 75.086 77.4243 74.2536 77.6113C73.6645 77.7516 72.3272 77.7329 71.7754 77.5833C70.6251 77.2747 70.223 76.9754 67.8289 74.6L65.5658 72.3556L64.696 72.9261C61.4322 75.0489 57.9253 76.3582 53.7263 77.0222C52.2674 77.2466 48.6857 77.3027 47.0959 77.1157C42.8034 76.62 38.7353 75.1611 35.3032 72.9073C34.6392 72.4678 34.0594 72.1031 34.022 72.1031C33.9472 72.1031 32.3293 72.7297 27.1203 74.7777C25.6521 75.3482 24.4457 75.8158 24.4363 75.8064C24.4176 75.7877 24.8011 74.7777 26.5124 70.4198C26.682 69.9848 26.8704 69.5034 27.0509 69.0425C27.3282 68.3339 27.5865 67.6739 27.7282 67.3056C27.9713 66.6977 28.149 66.174 28.1303 66.1366C28.1116 66.0992 27.7843 65.5848 27.3822 64.9957C25.2967 61.8535 23.8659 58.094 23.2393 54.054C23.0336 52.7541 22.9494 49.2846 23.0897 47.835C23.6414 42.093 25.8017 36.9962 29.5611 32.5915C33.8443 27.5696 40.1287 24.2403 46.8527 23.4361C48.1526 23.2771 51.3323 23.249 52.6602 23.3799ZM47.5542 24.1376C42.0553 24.6519 36.7248 26.9338 32.7315 30.4781C31.3194 31.7406 31.1323 31.9183 30.1691 33.0499C26.8024 36.9964 24.7918 41.3543 24.0249 46.4043C23.7818 47.9941 23.6976 50.8932 23.8379 52.4643C24.2587 57.0467 25.6989 61.1335 28.2146 64.8742L28.7067 65.6153C28.8971 65.9021 28.9401 66.2622 28.8224 66.5856C28.6073 67.1654 27.3448 70.4105 26.4003 72.7859C26.2252 73.2333 26.0704 73.6453 25.966 73.9404C25.8604 74.239 25.983 74.3567 26.2812 74.2498C27.2587 73.8995 29.7474 72.942 33.0027 71.6543C33.7296 71.373 34.548 71.4636 35.1957 71.8972L35.2939 71.9629C42.3639 76.7417 51.3417 77.7891 59.2908 74.7685C61.0676 74.0952 64.7616 72.1126 64.8738 71.7759C64.8925 71.7198 64.2566 71.0371 63.4617 70.2422L62.5836 69.3698C62.2524 69.0408 61.741 68.9766 61.3388 69.2135C59.59 70.2328 57.0744 71.2148 55.176 71.6263C52.146 72.2715 48.5735 72.2715 45.5436 71.6263C43.4207 71.168 40.6058 70.0084 38.6886 68.802C33.9847 65.8188 30.4777 61.1335 29.0375 55.8778C27.5412 50.3882 28.2052 44.5433 30.9173 39.5588C31.5438 38.4085 31.8431 37.9596 31.9366 38.0438C31.9834 38.0812 31.9834 38.0531 31.946 37.9877C31.8431 37.81 33.3487 35.8648 34.4897 34.7052C35.827 33.3585 36.7528 32.5916 38.1649 31.6565C41.0079 29.7674 44.0379 28.6358 47.5542 28.1308C48.8541 27.9531 52.0898 27.9812 53.4459 28.1869C56.4385 28.6452 59.1973 29.6365 61.6755 31.1327C63.3495 32.1521 64.4436 33.0125 65.9306 34.4994C67.1276 35.6871 67.2679 35.8554 67.0996 35.9209C66.9499 35.9864 62.7135 37.0338 62.6013 37.0338C62.5826 37.0338 62.3021 36.8 61.9841 36.5101C61.1237 35.7432 59.6929 34.7706 58.5333 34.1815C53.4085 31.5536 47.601 31.4881 42.4949 33.9851C41.5036 34.4714 39.6706 35.5842 39.4648 35.818C39.4368 35.8461 39.0721 36.1547 38.6606 36.5007C35.7989 38.8574 33.5919 42.6168 32.7689 46.5259C32.4697 47.9474 32.3574 50.6314 32.5445 52.1651C32.5636 52.3261 32.5835 52.4816 32.6026 52.6222C32.6593 53.0406 32.8746 53.125 33.1837 52.8374C33.7044 52.3532 34.5953 51.4889 35.5932 50.4911C36.6748 49.4094 37.6264 48.4758 38.1186 48.0102C38.3486 47.7926 38.5866 47.8063 38.8122 48.0286C39.4282 48.6352 40.8157 50.0018 42.4107 51.5759L42.7967 51.9536C44.3222 53.4459 45.6068 54.7026 46.1277 55.2045C46.2916 55.3624 46.4614 55.3657 46.6256 55.2082C47.3567 54.5069 49.6052 52.2837 52.2208 49.6681L56.2323 45.6566C57.225 44.6639 57.2418 43.0596 56.2701 42.0464C55.3069 41.0457 54.5494 40.2134 54.5868 40.1853C54.7271 40.1012 67.4269 37.0057 67.4643 37.0431C67.483 37.0618 67.2305 38.1934 66.9032 39.5588C66.5759 40.9241 65.9867 43.365 65.5939 44.9828C64.4811 49.5559 64.3688 49.9861 64.2286 49.958C64.1631 49.9393 63.3495 49.1351 62.4143 48.1812C61.4843 47.2204 59.9472 47.2088 59.0029 48.1556L53.6048 53.5678C49.6864 57.4863 46.432 60.694 46.3759 60.694C46.3198 60.694 44.4961 58.9265 42.3359 56.7662L40.6298 55.0682C39.3916 53.8358 37.3896 53.8382 36.1543 55.0735L34.6852 56.5426C34.2288 56.999 34.1195 57.6979 34.4148 58.2718C34.9853 59.4127 36.0982 61.04 36.865 61.8536C37.0566 62.0586 37.4002 61.9239 37.4014 61.6433L37.4074 60.2451V58.6946C37.4074 58.2908 37.5613 57.9022 37.8376 57.6078C38.0808 57.346 38.3426 57.1403 38.4174 57.1403C38.5764 57.1403 43.3552 61.8349 43.7761 62.4147C43.9522 62.6515 44.0473 62.9388 44.0473 63.2339V65.8322C44.0473 66.4294 44.4387 66.9559 45.0105 67.128C46.1982 67.5021 46.9089 67.6517 47.1053 67.5769C47.2362 67.5208 47.2456 67.3244 47.2082 65.9497C47.1708 64.7527 47.1801 64.3318 47.283 64.1541C47.3485 64.0232 48.8261 62.5082 50.5655 60.7875C51.7422 59.6212 53.7422 60.4482 53.7516 62.105L53.7545 62.6204L53.7708 66.9647C53.772 67.2901 54.072 67.5322 54.3904 67.4647C54.7271 67.3899 55.4098 67.1935 55.9054 67.0252C56.4476 66.8463 56.8155 66.3417 56.8199 65.7707L56.9014 55.1638C56.9044 54.7725 57.0414 54.3941 57.2895 54.0915C57.5046 53.839 58.3649 52.96 59.1973 52.1464L59.3059 52.0398C60.0847 51.2753 61.334 51.2812 62.1057 52.0528C62.9982 52.9513 63.4991 54.1664 63.4991 55.4328V61.3861C63.4991 61.6376 63.8116 61.754 63.9761 61.5637C64.6774 60.7501 65.8558 58.9358 66.3888 57.8603C67.6981 55.1764 68.2498 52.5298 68.147 49.425C68.0909 47.6201 67.8945 46.395 67.3614 44.6836C67.1411 43.9675 67.119 43.2052 67.2975 42.4776L67.7542 40.6155C67.9684 39.7229 68.1688 38.9137 68.3081 38.3595C68.4342 37.8581 68.6831 37.7909 68.9586 38.2282C69.2437 38.6807 69.609 39.3053 69.8958 39.8487C71.1489 42.2147 71.9999 44.9828 72.2805 47.6201C72.4114 48.789 72.4114 51.2766 72.2805 52.4456C71.9719 55.326 70.9712 58.4495 69.5685 60.909C69.2866 61.4064 69.3714 62.0306 69.7756 62.4348L70.4756 63.1348C71.2424 63.9016 71.8877 64.5282 71.9158 64.5282C72.0186 64.5282 72.6452 63.4808 73.3279 62.1435C76.3579 56.2331 77.0032 49.3595 75.1328 42.9067C74.0386 39.1473 72.028 35.5749 69.316 32.5916C65.9493 28.8789 61.3295 26.1014 56.4852 24.8764C53.6142 24.1469 50.3598 23.8757 47.5542 24.1376Z" fill="url(#paint2_linear_713_5693)"/>
<defs>
<linearGradient id="paint0_linear_713_5693" x1="50.5" y1="0" x2="50.5" y2="101" gradientUnits="userSpaceOnUse">
<stop stop-color="#FFBF00"/>
<stop offset="1" stop-color="#F2A60C"/>
</linearGradient>
<linearGradient id="paint1_linear_713_5693" x1="50.5" y1="0" x2="50.5" y2="101" gradientUnits="userSpaceOnUse">
<stop stop-color="#FFBF00"/>
<stop offset="1" stop-color="#F2A60C"/>
</linearGradient>
<linearGradient id="paint2_linear_713_5693" x1="50.5" y1="0" x2="50.5" y2="101" gradientUnits="userSpaceOnUse">
<stop stop-color="#FFBF00"/>
<stop offset="1" stop-color="#F2A60C"/>
</linearGradient>
</defs>
</svg>
